<svg width="716" height="306" viewBox="0 0 716 306" fill="none" xmlns="http://www.w3.org/2000/svg">
<rect width="716" height="306" rx="14" fill="#03103A"/>
<path d="M618.472 107.886V27.1044H653.34C659.336 27.1044 664.582 28.1957 669.078 30.3783C673.575 32.5608 677.072 35.7032 679.571 39.8054C682.069 43.9076 683.318 48.8249 683.318 54.5574C683.318 60.3426 682.029 65.2205 679.452 69.1912C676.901 73.1619 673.312 76.1596 668.684 78.1844C664.082 80.2092 658.705 81.2216 652.551 81.2216H631.725V64.1818H648.134C650.711 64.1818 652.906 63.8662 654.721 63.2351C656.561 62.5777 657.968 61.539 658.941 60.119C659.94 58.6991 660.44 56.8452 660.44 54.5574C660.44 52.2434 659.94 50.3632 658.941 48.9169C657.968 47.4444 656.561 46.3662 654.721 45.6825C652.906 44.9725 650.711 44.6175 648.134 44.6175H640.403V107.886H618.472ZM665.805 70.8084L686 107.886H662.176L642.454 70.8084H665.805Z" fill="#F6CB0A"/>
<path d="M536.046 107.886V27.1044H594.265V44.7753H557.977V58.6596H591.268V76.3305H557.977V90.2148H594.108V107.886H536.046Z" fill="#F6CB0A"/>
<path d="M444.254 44.7753V27.1044H514.464V44.7753H490.167V107.886H468.551V44.7753H444.254Z" fill="#F6CB0A"/>
<path d="M349.829 107.886V27.1044H371.76V58.6596H400.791V27.1044H422.722V107.886H400.791V76.3305H371.76V107.886H349.829Z" fill="#F6CB0A"/>
<path d="M303.161 53.7686C302.819 52.3749 302.28 51.1521 301.544 50.1003C300.807 49.0222 299.887 48.115 298.783 47.3787C297.704 46.6161 296.442 46.0507 294.996 45.6826C293.576 45.2881 292.011 45.0909 290.302 45.0909C286.621 45.0909 283.478 45.9718 280.875 47.7337C278.298 49.4955 276.326 52.0331 274.958 55.3464C273.617 58.6597 272.947 62.6566 272.947 67.3373C272.947 72.0706 273.591 76.1202 274.88 79.4861C276.168 82.852 278.088 85.429 280.638 87.2171C283.189 89.0053 286.358 89.8993 290.144 89.8993C293.484 89.8993 296.258 89.4129 298.467 88.4399C300.702 87.4669 302.372 86.0864 303.476 84.2983C304.581 82.5101 305.133 80.4065 305.133 77.9872L308.92 78.3817H290.46V62.7618H326.275V73.9639C326.275 81.3268 324.71 87.6247 321.581 92.8576C318.478 98.0642 314.192 102.061 308.722 104.849C303.279 107.61 297.034 108.99 289.987 108.99C282.124 108.99 275.221 107.32 269.278 103.981C263.336 100.641 258.694 95.8817 255.355 89.7021C252.041 83.5225 250.385 76.1728 250.385 67.6529C250.385 60.9737 251.397 55.0571 253.422 49.9031C255.473 44.7491 258.313 40.3971 261.942 36.8471C265.571 33.2709 269.765 30.5755 274.525 28.7611C279.284 26.9204 284.386 26 289.829 26C294.615 26 299.059 26.6837 303.161 28.0511C307.289 29.3922 310.931 31.3118 314.087 33.8099C317.269 36.2817 319.833 39.2138 321.778 42.6059C323.724 45.9981 324.908 49.719 325.328 53.7686H303.161Z" fill="#F6CB0A"/>
<path d="M226.978 27.1044V107.886H205.047V27.1044H226.978Z" fill="#F6CB0A"/>
<path d="M117.524 107.886V27.1044H152.393C158.388 27.1044 163.634 28.1957 168.131 30.3783C172.628 32.5608 176.125 35.7032 178.623 39.8054C181.121 43.9076 182.37 48.8249 182.37 54.5574C182.37 60.3426 181.082 65.2205 178.505 69.1912C175.954 73.1619 172.365 76.1596 167.737 78.1844C163.135 80.2092 157.757 81.2216 151.604 81.2216H130.778V64.1818H147.186C149.763 64.1818 151.959 63.8662 153.773 63.2351C155.614 62.5777 157.021 61.539 157.994 60.119C158.993 58.6991 159.493 56.8452 159.493 54.5574C159.493 52.2434 158.993 50.3632 157.994 48.9169C157.021 47.4444 155.614 46.3662 153.773 45.6825C151.959 44.9725 149.763 44.6175 147.186 44.6175H139.455V107.886H117.524ZM164.857 70.8084L185.053 107.886H161.228L141.506 70.8084H164.857Z" fill="#F6CB0A"/>
<path d="M30 107.886V27.1044H65.0263C71.1796 27.1044 76.3467 27.9327 80.5278 29.5894C84.7352 31.246 87.9038 33.5864 90.0338 36.6104C92.1901 39.6345 93.2682 43.1976 93.2682 47.2997C93.2682 50.2712 92.6108 52.9797 91.296 55.4252C90.0075 57.8707 88.1931 59.9218 85.8527 61.5785C83.5124 63.2088 80.7776 64.3396 77.6484 64.9707V65.7595C81.1195 65.891 84.275 66.7719 87.115 68.4023C89.9549 70.0064 92.2164 72.2284 93.8993 75.0683C95.5823 77.882 96.4237 81.1953 96.4237 85.0082C96.4237 89.426 95.2667 93.3572 92.9527 96.802C90.6649 100.247 87.4042 102.955 83.1705 104.927C78.9369 106.9 73.8881 107.886 68.024 107.886H30ZM51.9309 90.3726H62.1863C65.8678 90.3726 68.6289 89.6889 70.4696 88.3215C72.3103 86.9278 73.2307 84.8767 73.2307 82.1683C73.2307 80.2749 72.7968 78.6709 71.929 77.3561C71.0612 76.0413 69.8253 75.042 68.2213 74.3583C66.6435 73.6746 64.737 73.3328 62.5019 73.3328H51.9309V90.3726ZM51.9309 59.7641H60.9241C62.8437 59.7641 64.5398 59.4616 66.0124 58.8568C67.485 58.252 68.6289 57.3843 69.444 56.2535C70.2855 55.0965 70.7062 53.6897 70.7062 52.033C70.7062 49.5349 69.8122 47.6284 68.024 46.3136C66.2359 44.9725 63.9745 44.302 61.2397 44.302H51.9309V59.7641Z" fill="#F6CB0A"/>
<path d="M661.454 152.279C661.22 149.357 660.124 147.078 658.167 145.442C656.238 143.805 653.301 142.987 649.357 142.987C646.844 142.987 644.784 143.294 643.176 143.907C641.599 144.492 640.43 145.295 639.67 146.318C638.91 147.341 638.516 148.51 638.486 149.825C638.428 150.906 638.618 151.885 639.056 152.761C639.524 153.609 640.254 154.383 641.248 155.084C642.241 155.757 643.512 156.37 645.061 156.925C646.61 157.481 648.451 157.977 650.584 158.416L657.948 159.994C662.915 161.045 667.167 162.433 670.702 164.157C674.238 165.882 677.131 167.912 679.381 170.25C681.631 172.558 683.282 175.159 684.334 178.052C685.415 180.945 685.97 184.101 685.999 187.52C685.97 193.422 684.495 198.419 681.573 202.51C678.65 206.601 674.472 209.713 669.037 211.846C663.631 213.979 657.129 215.046 649.532 215.046C641.73 215.046 634.922 213.891 629.107 211.583C623.321 209.274 618.821 205.724 615.607 200.932C612.422 196.11 610.814 189.945 610.785 182.435H633.928C634.074 185.182 634.761 187.49 635.988 189.36C637.215 191.231 638.939 192.648 641.16 193.612C643.41 194.576 646.084 195.058 649.181 195.058C651.782 195.058 653.959 194.737 655.712 194.094C657.465 193.451 658.795 192.56 659.701 191.42C660.607 190.281 661.074 188.981 661.103 187.52C661.074 186.146 660.621 184.948 659.745 183.925C658.897 182.873 657.495 181.938 655.537 181.12C653.579 180.273 650.935 179.484 647.603 178.753L638.662 176.825C630.714 175.101 624.446 172.222 619.858 168.19C615.3 164.128 613.035 158.591 613.064 151.578C613.035 145.88 614.555 140.898 617.623 136.632C620.72 132.336 625.001 128.99 630.465 126.594C635.959 124.198 642.256 123 649.357 123C656.603 123 662.871 124.213 668.16 126.638C673.449 129.063 677.525 132.482 680.389 136.894C683.282 141.278 684.743 146.406 684.772 152.279H661.454Z" fill="#F6CB0A"/>
<path d="M521.472 213.994V124.227H586.166V143.864H545.842V159.292H582.835V178.929H545.842V194.357H585.991V213.994H521.472Z" fill="#F6CB0A"/>
<path d="M424.216 213.994V124.227H462.963C469.625 124.227 475.454 125.44 480.451 127.865C485.448 130.291 489.334 133.782 492.11 138.341C494.886 142.899 496.274 148.364 496.274 154.734C496.274 161.162 494.842 166.583 491.979 170.995C489.144 175.408 485.156 178.739 480.013 180.989C474.899 183.239 468.924 184.364 462.086 184.364H438.943V165.429H457.177C460.041 165.429 462.48 165.078 464.497 164.377C466.542 163.646 468.105 162.492 469.187 160.914C470.297 159.336 470.852 157.276 470.852 154.734C470.852 152.162 470.297 150.073 469.187 148.466C468.105 146.83 466.542 145.632 464.497 144.872C462.48 144.083 460.041 143.688 457.177 143.688H448.586V213.994H424.216ZM476.813 172.792L499.255 213.994H472.781L450.865 172.792H476.813Z" fill="#F6CB0A"/>
<path d="M373.451 124.227H397.821V181.734C397.821 188.571 396.184 194.489 392.912 199.485C389.668 204.453 385.139 208.296 379.324 211.013C373.509 213.701 366.759 215.046 359.074 215.046C351.33 215.046 344.551 213.701 338.736 211.013C332.921 208.296 328.392 204.453 325.149 199.485C321.934 194.489 320.327 188.571 320.327 181.734V124.227H344.697V179.63C344.697 182.406 345.311 184.89 346.538 187.081C347.765 189.244 349.46 190.938 351.623 192.166C353.814 193.393 356.298 194.007 359.074 194.007C361.879 194.007 364.363 193.393 366.525 192.166C368.688 190.938 370.382 189.244 371.61 187.081C372.837 184.89 373.451 182.406 373.451 179.63V124.227Z" fill="#F6CB0A"/>
<path d="M218.325 143.864V124.227H296.345V143.864H269.345V213.994H245.325V143.864H218.325Z" fill="#F6CB0A"/>
<path d="M170.016 124.227H194.386V181.734C194.386 188.571 192.75 194.489 189.477 199.485C186.234 204.453 181.704 208.296 175.889 211.013C170.074 213.701 163.324 215.046 155.639 215.046C147.896 215.046 141.117 213.701 135.302 211.013C129.487 208.296 124.958 204.453 121.714 199.485C118.5 194.489 116.893 188.571 116.893 181.734V124.227H141.263V179.63C141.263 182.406 141.876 184.89 143.104 187.081C144.331 189.244 146.026 190.938 148.188 192.166C150.38 193.393 152.863 194.007 155.639 194.007C158.445 194.007 160.928 193.393 163.091 192.166C165.253 190.938 166.948 189.244 168.175 187.081C169.402 184.89 170.016 182.406 170.016 179.63V124.227Z" fill="#F6CB0A"/>
<path d="M30 213.994V124.227H93.1169V143.864H54.3701V159.292H89.2598V178.929H54.3701V213.994H30Z" fill="#F6CB0A"/>
<path d="M686 238.633V284.914H675.515L658.792 260.598H658.521V284.914H645.956V238.633H656.622L673.074 262.858H673.436V238.633H686Z" fill="#F5F4E9"/>
<path d="M614.052 261.773C614.052 266.926 613.05 271.272 611.046 274.813C609.043 278.338 606.338 281.012 602.934 282.835C599.529 284.643 595.732 285.547 591.544 285.547C587.326 285.547 583.514 284.635 580.109 282.812C576.72 280.974 574.023 278.293 572.019 274.767C570.03 271.227 569.036 266.896 569.036 261.773C569.036 256.621 570.03 252.282 572.019 248.757C574.023 245.216 576.72 242.542 580.109 240.734C583.514 238.911 587.326 238 591.544 238C595.732 238 599.529 238.911 602.934 240.734C606.338 242.542 609.043 245.216 611.046 248.757C613.05 252.282 614.052 256.621 614.052 261.773ZM601.126 261.773C601.126 259.001 600.757 256.666 600.018 254.768C599.295 252.855 598.218 251.408 596.787 250.429C595.371 249.435 593.623 248.938 591.544 248.938C589.465 248.938 587.71 249.435 586.279 250.429C584.862 251.408 583.785 252.855 583.047 254.768C582.324 256.666 581.962 259.001 581.962 261.773C581.962 264.545 582.324 266.888 583.047 268.801C583.785 270.7 584.862 272.146 586.279 273.14C587.71 274.12 589.465 274.609 591.544 274.609C593.623 274.609 595.371 274.12 596.787 273.14C598.218 272.146 599.295 270.7 600.018 268.801C600.757 266.888 601.126 264.545 601.126 261.773Z" fill="#F5F4E9"/>
<path d="M537.171 238.633V284.914H524.606V238.633H537.171Z" fill="#F5F4E9"/>
<path d="M453.562 248.757V238.633H493.786V248.757H479.866V284.914H467.482V248.757H453.562Z" fill="#F5F4E9"/>
<path d="M395.953 284.914H382.394L397.67 238.633H414.845L430.121 284.914H416.562L406.438 251.378H406.077L395.953 284.914ZM393.422 266.655H418.912V276.055H393.422V266.655Z" fill="#F5F4E9"/>
<path d="M331.895 284.914H314.088V238.633H331.715C336.475 238.633 340.588 239.559 344.053 241.412C347.533 243.25 350.215 245.902 352.098 249.367C353.996 252.817 354.946 256.952 354.946 261.773C354.946 266.594 354.004 270.737 352.121 274.202C350.238 277.652 347.571 280.304 344.121 282.157C340.671 283.995 336.596 284.914 331.895 284.914ZM326.653 274.248H331.443C333.733 274.248 335.684 273.879 337.296 273.14C338.923 272.402 340.159 271.129 341.002 269.321C341.861 267.513 342.291 264.997 342.291 261.773C342.291 258.549 341.854 256.033 340.98 254.226C340.121 252.418 338.856 251.145 337.183 250.406C335.526 249.668 333.492 249.299 331.082 249.299H326.653V274.248Z" fill="#F5F4E9"/>
<path d="M282.053 238.633V284.914H271.567L254.845 260.598H254.573V284.914H242.009V238.633H252.675L269.127 262.858H269.488V238.633H282.053Z" fill="#F5F4E9"/>
<path d="M197.383 238.633H209.948V268.282C209.948 271.807 209.104 274.858 207.417 277.434C205.745 279.995 203.409 281.976 200.411 283.377C197.413 284.763 193.933 285.456 189.971 285.456C185.979 285.456 182.483 284.763 179.485 283.377C176.487 281.976 174.152 279.995 172.48 277.434C170.823 274.858 169.994 271.807 169.994 268.282V238.633H182.559V267.197C182.559 268.628 182.875 269.909 183.508 271.039C184.141 272.153 185.014 273.027 186.129 273.66C187.259 274.293 188.54 274.609 189.971 274.609C191.417 274.609 192.698 274.293 193.813 273.66C194.928 273.027 195.801 272.153 196.434 271.039C197.067 269.909 197.383 268.628 197.383 267.197V238.633Z" fill="#F5F4E9"/>
<path d="M138.089 261.773C138.089 266.926 137.087 271.272 135.083 274.813C133.08 278.338 130.375 281.012 126.971 282.835C123.566 284.643 119.769 285.547 115.581 285.547C111.363 285.547 107.551 284.635 104.146 282.812C100.757 280.974 98.0599 278.293 96.0562 274.767C94.0676 271.227 93.0732 266.896 93.0732 261.773C93.0732 256.621 94.0676 252.282 96.0562 248.757C98.0599 245.216 100.757 242.542 104.146 240.734C107.551 238.911 111.363 238 115.581 238C119.769 238 123.566 238.911 126.971 240.734C130.375 242.542 133.08 245.216 135.083 248.757C137.087 252.282 138.089 256.621 138.089 261.773ZM125.163 261.773C125.163 259.001 124.794 256.666 124.055 254.768C123.332 252.855 122.255 251.408 120.824 250.429C119.408 249.435 117.66 248.938 115.581 248.938C113.502 248.938 111.747 249.435 110.316 250.429C108.9 251.408 107.822 252.855 107.084 254.768C106.361 256.666 105.999 259.001 105.999 261.773C105.999 264.545 106.361 266.888 107.084 268.801C107.822 270.7 108.9 272.146 110.316 273.14C111.747 274.12 113.502 274.609 115.581 274.609C117.66 274.609 119.408 274.12 120.824 273.14C122.255 272.146 123.332 270.7 124.055 268.801C124.794 266.888 125.163 264.545 125.163 261.773Z" fill="#F5F4E9"/>
<path d="M30 284.914V238.633H62.5415V248.757H42.5646V256.711H60.5528V266.835H42.5646V284.914H30Z" fill="#F5F4E9"/>
</svg>
