<svg width="716" height="913" viewBox="0 0 716 913" fill="none" xmlns="http://www.w3.org/2000/svg">
<path d="M261.648 430.254L264.727 431.954L264.73 431.963C287.75 444.762 305.107 465.76 313.346 490.777L340.601 573.229C341.905 577.176 341.589 581.48 339.72 585.194C337.852 588.908 334.584 591.727 330.637 593.032C326.69 594.336 322.386 594.02 318.672 592.151C314.959 590.283 312.139 587.016 310.835 583.068L306.475 569.88L306.333 569.927L283.422 500.616C277.948 484.132 266.826 470.112 252.021 461.031C248.415 458.884 163.334 408.122 162.649 407.706C158.191 405.019 154.128 406.11 152.407 408.585C151.068 410.523 150.994 413.644 154.813 416.658C158.922 419.944 223.173 459.181 223.82 459.578C227.36 461.92 229.824 465.571 230.671 469.729C231.518 473.887 230.679 478.212 228.337 481.751C225.996 485.29 222.345 487.754 218.187 488.602C214.028 489.449 209.704 488.609 206.165 486.268L126.411 433.397C106.613 420.218 91.7868 400.801 84.2887 378.23L63.4897 315.309C63.0316 313.735 62.0268 312.377 60.6562 311.478C59.2857 310.58 57.6394 310.2 56.0137 310.407C55.0135 310.565 54.0637 310.953 53.2399 311.542C52.4161 312.13 51.741 312.903 51.2681 313.798C50.8421 314.65 50.5932 315.58 50.5365 316.531C50.4797 317.482 50.6163 318.435 50.938 319.331L72.0634 383.24C90.4253 438.79 130.095 484.775 182.351 511.086L226.463 533.272C231.874 535.989 236.694 539.748 240.647 544.334C244.599 548.92 247.606 554.242 249.493 559.995L259 589L225.5 589L219.126 570.085C217.902 566.489 215.316 563.517 211.924 561.807L211.738 561.709C204.492 557.885 148.939 528.565 137.144 520.763C105.646 499.874 75.8086 466.196 57.2846 430.549C43.4156 403.849 21.6485 333.036 20.401 328.978L20.379 328.906C18.773 323.985 18.1721 318.792 18.612 313.634C19.0519 308.476 20.5237 303.459 22.94 298.881C25.3563 294.303 28.6678 290.258 32.6779 286.984C36.688 283.711 41.3149 281.276 46.284 279.826C65.9963 274.079 87.3951 285.605 93.986 305.544L116.094 372.425C119.139 381.602 124.313 389.929 131.193 396.724C132.993 392.927 135.546 389.535 138.697 386.755C141.849 383.976 145.532 381.866 149.524 380.553L150.474 380.239C154.529 378.91 158.814 378.426 163.064 378.816C167.314 379.206 171.439 380.463 175.184 382.509C192.199 391.924 232.163 414.018 261.648 430.254Z" fill="#03103A"/>
<path d="M454.872 430.254L451.793 431.954L451.79 431.963C428.77 444.762 411.414 465.76 403.175 490.777L375.92 573.229C374.615 577.176 374.932 581.48 376.8 585.194C378.669 588.908 381.936 591.727 385.883 593.032C389.831 594.337 394.134 594.02 397.848 592.151C401.562 590.283 404.381 587.016 405.686 583.069L410.045 569.88L410.188 569.927L433.099 500.616C438.573 484.132 449.694 470.112 464.499 461.031C468.105 458.884 553.186 408.122 553.871 407.706C558.33 405.02 562.393 406.11 564.113 408.585C565.452 410.523 565.527 413.644 561.708 416.658C557.599 419.944 493.348 459.182 492.7 459.578C489.161 461.92 486.697 465.571 485.85 469.729C485.002 473.887 485.842 478.212 488.183 481.751C490.524 485.29 494.176 487.755 498.334 488.602C502.492 489.449 506.816 488.609 510.356 486.268L590.109 433.398C609.908 420.219 624.734 400.801 632.232 378.23L653.031 315.309C653.489 313.735 654.494 312.377 655.864 311.479C657.235 310.58 658.881 310.2 660.507 310.408C661.507 310.565 662.457 310.953 663.281 311.542C664.104 312.13 664.78 312.903 665.252 313.798C665.678 314.65 665.927 315.58 665.984 316.531C666.041 317.482 665.904 318.435 665.582 319.331L644.457 383.24C626.095 438.79 586.426 484.775 534.17 511.086L490.058 533.273C484.647 535.989 479.826 539.748 475.874 544.334C471.921 548.92 468.915 554.242 467.027 559.995L457.521 589L491.021 589L497.395 570.085C498.618 566.489 501.204 563.517 504.597 561.808L504.782 561.709C512.029 557.885 567.582 528.565 579.377 520.764C610.875 499.874 640.712 466.197 659.236 430.549C673.105 403.849 694.872 333.036 696.119 328.978L696.141 328.906C697.748 323.985 698.348 318.792 697.909 313.634C697.469 308.476 695.997 303.459 693.581 298.881C691.164 294.303 687.853 290.258 683.843 286.984C679.833 283.711 675.206 281.277 670.237 279.826C650.524 274.079 629.125 285.605 622.535 305.544L600.427 372.425C597.381 381.602 592.207 389.929 585.328 396.724C583.528 392.927 580.974 389.535 577.823 386.756C574.672 383.976 570.988 381.866 566.996 380.553L566.047 380.24C561.991 378.91 557.707 378.426 553.457 378.816C549.207 379.207 545.082 380.463 541.336 382.509C524.321 391.924 484.358 414.018 454.872 430.254Z" fill="#03103A"/>
<path fill-rule="evenodd" clip-rule="evenodd" d="M0 577C0 570.373 5.36164 565 11.9756 565H233.024C239.638 565 245 570.373 245 577C245 583.627 239.638 589 233.024 589H11.9756C5.36164 589 0 583.627 0 577Z" fill="#03103A"/>
<path fill-rule="evenodd" clip-rule="evenodd" d="M471 577C471 570.373 476.362 565 482.976 565H704.024C710.638 565 716 570.373 716 577C716 583.627 710.638 589 704.024 589H482.976C476.362 589 471 583.627 471 577Z" fill="#03103A"/>
<rect y="607" width="716" height="306" rx="14" fill="#03103A"/>
<path d="M618.472 714.886V634.104H653.34C659.336 634.104 664.582 635.196 669.078 637.378C673.575 639.561 677.072 642.703 679.571 646.805C682.069 650.908 683.318 655.825 683.318 661.557C683.318 667.343 682.029 672.22 679.452 676.191C676.901 680.162 673.312 683.16 668.684 685.184C664.082 687.209 658.705 688.222 652.551 688.222H631.725V671.182H648.134C650.711 671.182 652.906 670.866 654.721 670.235C656.561 669.578 657.968 668.539 658.941 667.119C659.94 665.699 660.44 663.845 660.44 661.557C660.44 659.243 659.94 657.363 658.941 655.917C657.968 654.444 656.561 653.366 654.721 652.683C652.906 651.973 650.711 651.618 648.134 651.618H640.403V714.886H618.472ZM665.805 677.808L686 714.886H662.176L642.454 677.808H665.805Z" fill="#F6CB0A"/>
<path d="M536.046 714.886V634.104H594.265V651.775H557.977V665.66H591.268V683.331H557.977V697.215H594.108V714.886H536.046Z" fill="#F6CB0A"/>
<path d="M444.254 651.775V634.104H514.464V651.775H490.167V714.886H468.551V651.775H444.254Z" fill="#F6CB0A"/>
<path d="M349.829 714.886V634.104H371.76V665.66H400.791V634.104H422.722V714.886H400.791V683.331H371.76V714.886H349.829Z" fill="#F6CB0A"/>
<path d="M303.161 660.769C302.819 659.375 302.28 658.152 301.544 657.1C300.807 656.022 299.887 655.115 298.783 654.379C297.704 653.616 296.442 653.051 294.996 652.683C293.576 652.288 292.011 652.091 290.302 652.091C286.621 652.091 283.478 652.972 280.875 654.734C278.298 656.495 276.326 659.033 274.958 662.346C273.617 665.66 272.947 669.657 272.947 674.337C272.947 679.071 273.591 683.12 274.88 686.486C276.168 689.852 278.088 692.429 280.638 694.217C283.189 696.005 286.358 696.899 290.144 696.899C293.484 696.899 296.258 696.413 298.467 695.44C300.702 694.467 302.372 693.086 303.476 691.298C304.581 689.51 305.133 687.406 305.133 684.987L308.92 685.382H290.46V669.762H326.275V680.964C326.275 688.327 324.71 694.625 321.581 699.858C318.478 705.064 314.192 709.061 308.722 711.849C303.279 714.61 297.034 715.99 289.987 715.99C282.124 715.99 275.221 714.32 269.278 710.981C263.336 707.641 258.694 702.882 255.355 696.702C252.041 690.523 250.385 683.173 250.385 674.653C250.385 667.974 251.397 662.057 253.422 656.903C255.473 651.749 258.313 647.397 261.942 643.847C265.571 640.271 269.765 637.576 274.525 635.761C279.284 633.92 284.386 633 289.829 633C294.615 633 299.059 633.684 303.161 635.051C307.289 636.392 310.931 638.312 314.087 640.81C317.269 643.282 319.833 646.214 321.778 649.606C323.724 652.998 324.908 656.719 325.328 660.769H303.161Z" fill="#F6CB0A"/>
<path d="M226.978 634.104V714.886H205.047V634.104H226.978Z" fill="#F6CB0A"/>
<path d="M117.524 714.886V634.104H152.393C158.388 634.104 163.634 635.196 168.131 637.378C172.628 639.561 176.125 642.703 178.623 646.805C181.121 650.908 182.37 655.825 182.37 661.557C182.37 667.343 181.082 672.22 178.505 676.191C175.954 680.162 172.365 683.16 167.737 685.184C163.135 687.209 157.757 688.222 151.604 688.222H130.778V671.182H147.186C149.763 671.182 151.959 670.866 153.773 670.235C155.614 669.578 157.021 668.539 157.994 667.119C158.993 665.699 159.493 663.845 159.493 661.557C159.493 659.243 158.993 657.363 157.994 655.917C157.021 654.444 155.614 653.366 153.773 652.683C151.959 651.973 149.763 651.618 147.186 651.618H139.455V714.886H117.524ZM164.857 677.808L185.053 714.886H161.228L141.506 677.808H164.857Z" fill="#F6CB0A"/>
<path d="M30 714.886V634.104H65.0263C71.1796 634.104 76.3467 634.933 80.5278 636.589C84.7352 638.246 87.9038 640.586 90.0338 643.61C92.1901 646.634 93.2682 650.198 93.2682 654.3C93.2682 657.271 92.6108 659.98 91.296 662.425C90.0075 664.871 88.1931 666.922 85.8527 668.578C83.5124 670.209 80.7776 671.34 77.6484 671.971V672.76C81.1195 672.891 84.275 673.772 87.115 675.402C89.9549 677.006 92.2164 679.228 93.8993 682.068C95.5823 684.882 96.4237 688.195 96.4237 692.008C96.4237 696.426 95.2667 700.357 92.9527 703.802C90.6649 707.247 87.4042 709.955 83.1705 711.927C78.9369 713.9 73.8881 714.886 68.024 714.886H30ZM51.9309 697.373H62.1863C65.8678 697.373 68.6289 696.689 70.4696 695.322C72.3103 693.928 73.2307 691.877 73.2307 689.168C73.2307 687.275 72.7968 685.671 71.929 684.356C71.0612 683.041 69.8253 682.042 68.2213 681.358C66.6435 680.675 64.737 680.333 62.5019 680.333H51.9309V697.373ZM51.9309 666.764H60.9241C62.8437 666.764 64.5398 666.462 66.0124 665.857C67.485 665.252 68.6289 664.384 69.444 663.254C70.2855 662.097 70.7062 660.69 70.7062 659.033C70.7062 656.535 69.8122 654.628 68.024 653.314C66.2359 651.973 63.9745 651.302 61.2397 651.302H51.9309V666.764Z" fill="#F6CB0A"/>
<path d="M661.454 759.279C661.22 756.357 660.124 754.078 658.167 752.442C656.238 750.805 653.301 749.987 649.357 749.987C646.844 749.987 644.784 750.294 643.176 750.907C641.599 751.492 640.43 752.295 639.67 753.318C638.91 754.341 638.516 755.51 638.486 756.825C638.428 757.906 638.618 758.885 639.056 759.761C639.524 760.609 640.254 761.383 641.248 762.084C642.241 762.757 643.512 763.37 645.061 763.925C646.61 764.481 648.451 764.977 650.584 765.416L657.948 766.994C662.915 768.045 667.167 769.433 670.702 771.157C674.238 772.882 677.131 774.912 679.381 777.25C681.631 779.558 683.282 782.159 684.334 785.052C685.415 787.945 685.97 791.101 685.999 794.52C685.97 800.422 684.495 805.419 681.573 809.51C678.65 813.601 674.472 816.713 669.037 818.846C663.631 820.979 657.129 822.046 649.532 822.046C641.73 822.046 634.922 820.891 629.107 818.583C623.321 816.274 618.821 812.724 615.607 807.932C612.422 803.11 610.814 796.945 610.785 789.435H633.928C634.074 792.182 634.761 794.49 635.988 796.36C637.215 798.231 638.939 799.648 641.16 800.612C643.41 801.576 646.084 802.058 649.181 802.058C651.782 802.058 653.959 801.737 655.712 801.094C657.465 800.451 658.795 799.56 659.701 798.42C660.607 797.281 661.074 795.981 661.103 794.52C661.074 793.146 660.621 791.948 659.745 790.925C658.897 789.873 657.495 788.938 655.537 788.12C653.579 787.273 650.935 786.484 647.603 785.753L638.662 783.825C630.714 782.101 624.446 779.222 619.858 775.19C615.3 771.128 613.035 765.591 613.064 758.578C613.035 752.88 614.555 747.898 617.623 743.632C620.72 739.336 625.001 735.99 630.465 733.594C635.959 731.198 642.256 730 649.357 730C656.603 730 662.871 731.213 668.16 733.638C673.449 736.063 677.525 739.482 680.389 743.894C683.282 748.278 684.743 753.406 684.772 759.279H661.454Z" fill="#F6CB0A"/>
<path d="M521.472 820.994V731.227H586.166V750.864H545.842V766.292H582.835V785.929H545.842V801.357H585.991V820.994H521.472Z" fill="#F6CB0A"/>
<path d="M424.216 820.994V731.227H462.963C469.625 731.227 475.454 732.44 480.451 734.865C485.448 737.291 489.334 740.782 492.11 745.341C494.886 749.899 496.274 755.364 496.274 761.734C496.274 768.162 494.842 773.583 491.979 777.995C489.144 782.408 485.156 785.739 480.013 787.989C474.899 790.239 468.924 791.364 462.086 791.364H438.943V772.429H457.177C460.041 772.429 462.48 772.078 464.497 771.377C466.542 770.646 468.105 769.492 469.187 767.914C470.297 766.336 470.852 764.276 470.852 761.734C470.852 759.162 470.297 757.073 469.187 755.466C468.105 753.83 466.542 752.632 464.497 751.872C462.48 751.083 460.041 750.688 457.177 750.688H448.586V820.994H424.216ZM476.813 779.792L499.255 820.994H472.781L450.865 779.792H476.813Z" fill="#F6CB0A"/>
<path d="M373.451 731.227H397.821V788.734C397.821 795.571 396.184 801.489 392.912 806.485C389.668 811.453 385.139 815.296 379.324 818.013C373.509 820.701 366.759 822.046 359.074 822.046C351.33 822.046 344.551 820.701 338.736 818.013C332.921 815.296 328.392 811.453 325.149 806.485C321.934 801.489 320.327 795.571 320.327 788.734V731.227H344.697V786.63C344.697 789.406 345.311 791.89 346.538 794.081C347.765 796.244 349.46 797.938 351.623 799.166C353.814 800.393 356.298 801.007 359.074 801.007C361.879 801.007 364.363 800.393 366.525 799.166C368.688 797.938 370.382 796.244 371.61 794.081C372.837 791.89 373.451 789.406 373.451 786.63V731.227Z" fill="#F6CB0A"/>
<path d="M218.325 750.864V731.227H296.345V750.864H269.345V820.994H245.325V750.864H218.325Z" fill="#F6CB0A"/>
<path d="M170.016 731.227H194.386V788.734C194.386 795.571 192.75 801.489 189.477 806.485C186.234 811.453 181.704 815.296 175.889 818.013C170.074 820.701 163.324 822.046 155.639 822.046C147.896 822.046 141.117 820.701 135.302 818.013C129.487 815.296 124.958 811.453 121.714 806.485C118.5 801.489 116.893 795.571 116.893 788.734V731.227H141.263V786.63C141.263 789.406 141.876 791.89 143.104 794.081C144.331 796.244 146.026 797.938 148.188 799.166C150.38 800.393 152.863 801.007 155.639 801.007C158.445 801.007 160.928 800.393 163.091 799.166C165.253 797.938 166.948 796.244 168.175 794.081C169.402 791.89 170.016 789.406 170.016 786.63V731.227Z" fill="#F6CB0A"/>
<path d="M30 820.994V731.227H93.1169V750.864H54.3701V766.292H89.2598V785.929H54.3701V820.994H30Z" fill="#F6CB0A"/>
<path d="M686 845.633V891.914H675.515L658.792 867.598H658.521V891.914H645.956V845.633H656.622L673.074 869.858H673.436V845.633H686Z" fill="#F5F4E9"/>
<path d="M614.052 868.773C614.052 873.926 613.05 878.272 611.046 881.813C609.043 885.338 606.338 888.012 602.934 889.835C599.529 891.643 595.732 892.547 591.544 892.547C587.326 892.547 583.514 891.635 580.109 889.812C576.72 887.974 574.023 885.293 572.019 881.767C570.03 878.227 569.036 873.896 569.036 868.773C569.036 863.621 570.03 859.282 572.019 855.757C574.023 852.216 576.72 849.542 580.109 847.734C583.514 845.911 587.326 845 591.544 845C595.732 845 599.529 845.911 602.934 847.734C606.338 849.542 609.043 852.216 611.046 855.757C613.05 859.282 614.052 863.621 614.052 868.773ZM601.126 868.773C601.126 866.001 600.757 863.666 600.018 861.768C599.295 859.855 598.218 858.408 596.787 857.429C595.371 856.435 593.623 855.938 591.544 855.938C589.465 855.938 587.71 856.435 586.279 857.429C584.862 858.408 583.785 859.855 583.047 861.768C582.324 863.666 581.962 866.001 581.962 868.773C581.962 871.545 582.324 873.888 583.047 875.801C583.785 877.7 584.862 879.146 586.279 880.14C587.71 881.12 589.465 881.609 591.544 881.609C593.623 881.609 595.371 881.12 596.787 880.14C598.218 879.146 599.295 877.7 600.018 875.801C600.757 873.888 601.126 871.545 601.126 868.773Z" fill="#F5F4E9"/>
<path d="M537.171 845.633V891.914H524.606V845.633H537.171Z" fill="#F5F4E9"/>
<path d="M453.562 855.757V845.633H493.786V855.757H479.866V891.914H467.482V855.757H453.562Z" fill="#F5F4E9"/>
<path d="M395.953 891.914H382.394L397.67 845.633H414.845L430.121 891.914H416.562L406.438 858.378H406.077L395.953 891.914ZM393.422 873.655H418.912V883.055H393.422V873.655Z" fill="#F5F4E9"/>
<path d="M331.895 891.914H314.088V845.633H331.715C336.475 845.633 340.588 846.559 344.053 848.412C347.533 850.25 350.215 852.902 352.098 856.367C353.996 859.817 354.946 863.952 354.946 868.773C354.946 873.594 354.004 877.737 352.121 881.202C350.238 884.652 347.571 887.304 344.121 889.157C340.671 890.995 336.596 891.914 331.895 891.914ZM326.653 881.248H331.443C333.733 881.248 335.684 880.879 337.296 880.14C338.923 879.402 340.159 878.129 341.002 876.321C341.861 874.513 342.291 871.997 342.291 868.773C342.291 865.549 341.854 863.033 340.98 861.226C340.121 859.418 338.856 858.145 337.183 857.406C335.526 856.668 333.492 856.299 331.082 856.299H326.653V881.248Z" fill="#F5F4E9"/>
<path d="M282.053 845.633V891.914H271.567L254.845 867.598H254.573V891.914H242.009V845.633H252.675L269.127 869.858H269.488V845.633H282.053Z" fill="#F5F4E9"/>
<path d="M197.383 845.633H209.948V875.282C209.948 878.807 209.104 881.858 207.417 884.434C205.745 886.995 203.409 888.976 200.411 890.377C197.413 891.763 193.933 892.456 189.971 892.456C185.979 892.456 182.483 891.763 179.485 890.377C176.487 888.976 174.152 886.995 172.48 884.434C170.823 881.858 169.994 878.807 169.994 875.282V845.633H182.559V874.197C182.559 875.628 182.875 876.909 183.508 878.039C184.141 879.153 185.014 880.027 186.129 880.66C187.259 881.293 188.54 881.609 189.971 881.609C191.417 881.609 192.698 881.293 193.813 880.66C194.928 880.027 195.801 879.153 196.434 878.039C197.067 876.909 197.383 875.628 197.383 874.197V845.633Z" fill="#F5F4E9"/>
<path d="M138.089 868.773C138.089 873.926 137.087 878.272 135.083 881.813C133.08 885.338 130.375 888.012 126.971 889.835C123.566 891.643 119.769 892.547 115.581 892.547C111.363 892.547 107.551 891.635 104.146 889.812C100.757 887.974 98.0599 885.293 96.0562 881.767C94.0676 878.227 93.0732 873.896 93.0732 868.773C93.0732 863.621 94.0676 859.282 96.0562 855.757C98.0599 852.216 100.757 849.542 104.146 847.734C107.551 845.911 111.363 845 115.581 845C119.769 845 123.566 845.911 126.971 847.734C130.375 849.542 133.08 852.216 135.083 855.757C137.087 859.282 138.089 863.621 138.089 868.773ZM125.163 868.773C125.163 866.001 124.794 863.666 124.055 861.768C123.332 859.855 122.255 858.408 120.824 857.429C119.408 856.435 117.66 855.938 115.581 855.938C113.502 855.938 111.747 856.435 110.316 857.429C108.9 858.408 107.822 859.855 107.084 861.768C106.361 863.666 105.999 866.001 105.999 868.773C105.999 871.545 106.361 873.888 107.084 875.801C107.822 877.7 108.9 879.146 110.316 880.14C111.747 881.12 113.502 881.609 115.581 881.609C117.66 881.609 119.408 881.12 120.824 880.14C122.255 879.146 123.332 877.7 124.055 875.801C124.794 873.888 125.163 871.545 125.163 868.773Z" fill="#F5F4E9"/>
<path d="M30 891.914V845.633H62.5415V855.757H42.5646V863.711H60.5528V873.835H42.5646V891.914H30Z" fill="#F5F4E9"/>
<path d="M359 339.5L293.5 375.5H286.5L303 300L245 243.5L326 232L359 165.5L395 232L474.5 243.5L416.5 300L428.5 375.5L359 339.5Z" fill="#F6CB0A"/>
<path d="M474.622 225.538L400.131 217.669L374.951 154.326C371.41 145.408 361.443 141.08 352.525 144.621C348.066 146.326 344.656 149.867 342.82 154.326L317.64 217.669L243.15 225.538C233.707 226.587 226.887 235.112 227.937 244.554C228.461 249.013 230.691 253.21 234.232 256.095L289.313 300.816L272.002 372.028C269.772 381.208 275.411 390.651 284.592 392.88C289.444 394.06 294.559 393.142 298.624 390.257L358.951 348.159L419.278 390.257C427.147 395.765 437.901 393.798 443.278 385.929C446.163 381.864 447.081 376.749 445.901 372.028L428.59 300.816L483.671 256.095C491.015 250.062 492.195 239.177 486.163 231.833C483.409 228.292 479.212 226.063 474.622 225.538ZM407.738 284.029C402.623 288.226 400.262 295.045 401.836 301.472L414.819 355.11L368.787 322.979C362.886 318.914 355.017 318.914 348.984 322.979L302.952 355.11L315.935 301.472C317.509 295.045 315.149 288.226 310.034 284.029L267.28 249.407L325.771 243.243C332.198 242.587 337.574 238.39 339.935 232.489L358.689 185.145L377.574 232.489C379.935 238.39 385.443 242.587 391.738 243.243L450.098 249.407L407.738 284.029Z" fill="#03103A"/>
<path d="M358.365 87.098C361.225 87.098 363.539 84.781 363.539 81.924V40.136C363.539 37.278 361.225 34.962 358.365 34.962C355.505 34.962 353.191 37.279 353.191 40.136V81.923C353.191 84.781 355.505 87.098 358.365 87.098Z" fill="#03103A"/>
<path d="M358.365 18.269C361.225 18.269 363.539 15.952 363.539 13.095V5.174C363.539 2.316 361.225 0 358.365 0C355.505 0 353.191 2.317 353.191 5.174V13.095C353.191 15.952 355.505 18.269 358.365 18.269Z" fill="#03103A"/>
<path d="M476.062 135.85C477.386 135.85 478.71 135.345 479.72 134.334L509.271 104.786C511.292 102.765 511.292 99.49 509.271 97.469C507.25 95.448 503.975 95.448 501.954 97.469L472.403 127.017C470.382 129.038 470.382 132.313 472.403 134.334C473.414 135.345 474.738 135.85 476.062 135.85Z" fill="#03103A"/>
<path d="M524.733 87.1809C526.057 87.1809 527.381 86.676 528.391 85.665L533.99 80.064C536.011 78.043 536.011 74.766 533.99 72.747C531.969 70.726 528.694 70.726 526.673 72.747L521.074 78.3479C519.053 80.3689 519.053 83.646 521.074 85.665C522.086 86.676 523.41 87.1809 524.733 87.1809Z" fill="#03103A"/>
<path d="M566.604 243.198H524.815C521.955 243.198 519.641 245.515 519.641 248.372C519.641 251.23 521.955 253.546 524.815 253.546H566.604C569.464 253.546 571.778 251.229 571.778 248.372C571.778 245.515 569.464 243.198 566.604 243.198Z" fill="#03103A"/>
<path d="M601.566 243.196H593.643C590.783 243.196 588.469 245.513 588.469 248.37C588.469 251.228 590.783 253.544 593.643 253.544H601.566C604.426 253.544 606.74 251.227 606.74 248.37C606.74 245.512 604.426 243.196 601.566 243.196Z" fill="#03103A"/>
<path d="M197.095 248.373C197.095 245.515 194.781 243.199 191.921 243.199H150.131C147.271 243.199 144.957 245.516 144.957 248.373C144.957 251.231 147.271 253.547 150.131 253.547H191.92C194.781 253.547 197.095 251.23 197.095 248.373Z" fill="#03103A"/>
<path d="M123.092 243.198H115.174C112.314 243.198 110 245.515 110 248.372C110 251.23 112.314 253.546 115.174 253.546H123.092C125.952 253.546 128.266 251.229 128.266 248.372C128.267 245.515 125.952 243.198 123.092 243.198Z" fill="#03103A"/>
<path d="M237.009 134.334C238.02 135.345 239.344 135.85 240.667 135.85C241.991 135.85 243.315 135.345 244.325 134.334C246.346 132.313 246.346 129.038 244.325 127.017L214.779 97.469C212.758 95.448 209.483 95.448 207.462 97.469C205.441 99.49 205.441 102.765 207.462 104.786L237.009 134.334Z" fill="#03103A"/>
<path d="M188.343 85.665C189.354 86.676 190.678 87.1809 192.001 87.1809C193.324 87.1809 194.649 86.676 195.659 85.665C197.68 83.646 197.68 80.3689 195.659 78.3479L190.06 72.747C188.039 70.726 184.764 70.726 182.743 72.747C180.722 74.766 180.722 78.043 182.743 80.064L188.343 85.665Z" fill="#03103A"/>
<path d="M406.9 116.446C407.491 116.663 408.093 116.767 408.689 116.767C410.796 116.767 412.777 115.468 413.545 113.376L426.178 79.035C427.163 76.354 425.789 73.378 423.111 72.393C420.438 71.418 417.452 72.78 416.466 75.463L403.833 109.804C402.847 112.484 404.222 115.461 406.9 116.446Z" fill="#03103A"/>
<path d="M427.709 59.884C428.3 60.101 428.902 60.205 429.498 60.205C431.605 60.205 433.586 58.906 434.354 56.814L436.749 50.306C437.734 47.625 436.36 44.652 433.682 43.664C431.014 42.689 428.023 44.051 427.037 46.734L424.642 53.242C423.656 55.922 425.031 58.896 427.709 59.884Z" fill="#03103A"/>
<path d="M528.584 169.716C527.386 167.126 524.319 165.982 521.712 167.189L488.498 182.538C485.906 183.736 484.774 186.81 485.971 189.405C486.845 191.297 488.72 192.409 490.675 192.409C491.398 192.409 492.135 192.257 492.843 191.931L526.057 176.582C528.65 175.385 529.782 172.311 528.584 169.716Z" fill="#03103A"/>
<path d="M545.38 167.129C546.103 167.129 546.845 166.977 547.548 166.651L553.844 163.74C556.436 162.54 557.568 159.465 556.366 156.873C555.168 154.283 552.101 153.134 549.499 154.346L543.203 157.257C540.611 158.457 539.479 161.532 540.682 164.124C541.555 166.017 543.425 167.129 545.38 167.129Z" fill="#03103A"/>
<path d="M188.151 327.027C189.025 328.919 190.9 330.031 192.855 330.031C193.578 330.031 194.315 329.879 195.023 329.553L228.237 314.204C230.829 313.006 231.961 309.932 230.764 307.337C229.566 304.742 226.489 303.608 223.892 304.81L190.678 320.16C188.085 321.357 186.953 324.432 188.151 327.027Z" fill="#03103A"/>
<path d="M169.187 330.091L162.891 333.002C160.299 334.202 159.167 337.277 160.369 339.869C161.243 341.761 163.113 342.873 165.068 342.873C165.791 342.873 166.533 342.721 167.236 342.395L173.532 339.484C176.124 338.284 177.256 335.209 176.054 332.617C174.856 330.026 171.784 328.881 169.187 330.091Z" fill="#03103A"/>
<path d="M490.292 296.908C489.307 299.589 490.681 302.565 493.359 303.55L527.7 316.183C528.291 316.4 528.893 316.504 529.489 316.504C531.596 316.504 533.577 315.205 534.345 313.113C535.33 310.432 533.956 307.456 531.278 306.471L496.937 293.838C494.258 292.858 491.277 294.227 490.292 296.908Z" fill="#03103A"/>
<path d="M560.004 317.039L553.496 314.646C550.823 313.661 547.842 315.038 546.856 317.716C545.871 320.399 547.245 323.373 549.928 324.358L556.436 326.751C557.022 326.968 557.629 327.072 558.22 327.072C560.327 327.072 562.308 325.773 563.076 323.681C564.062 320.998 562.687 318.025 560.004 317.039Z" fill="#03103A"/>
<path d="M226.443 199.837C227.428 197.156 226.054 194.183 223.376 193.195L189.035 180.56C186.367 179.577 183.376 180.947 182.39 183.63C181.405 186.311 182.779 189.284 185.457 190.272L219.798 202.907C220.389 203.124 220.991 203.228 221.587 203.228C223.695 203.228 225.675 201.929 226.443 199.837Z" fill="#03103A"/>
<path d="M156.726 179.703L163.234 182.098C163.825 182.315 164.427 182.419 165.023 182.419C167.13 182.419 169.111 181.12 169.879 179.028C170.864 176.347 169.49 173.374 166.812 172.386L160.304 169.991C157.626 169.016 154.645 170.378 153.659 173.061C152.673 175.742 154.048 178.715 156.726 179.703Z" fill="#03103A"/>
<path d="M277.182 85.026L292.528 118.24C293.402 120.132 295.277 121.244 297.232 121.244C297.955 121.244 298.692 121.092 299.395 120.766C301.992 119.568 303.124 116.494 301.927 113.899L286.58 80.685C285.382 78.093 282.33 76.948 279.708 78.158C277.116 79.356 275.984 82.431 277.182 85.026Z" fill="#03103A"/>
<path d="M267.247 63.527C268.121 65.419 269.996 66.534 271.951 66.534C272.674 66.534 273.411 66.382 274.114 66.056C276.711 64.858 277.843 61.786 276.646 59.191L273.74 52.897C272.542 50.305 269.47 49.163 266.873 50.368C264.276 51.566 263.144 54.638 264.341 57.233L267.247 63.527Z" fill="#03103A"/>
</svg>
